<svg width="38" height="38" viewBox="0 0 38 38" fill="currentcolor" xmlns="http://www.w3.org/2000/svg">
<rect width="38" height="38" rx="19" fill="#dce2e0"/>
<path fill-rule="evenodd" clip-rule="evenodd" d="M19.2782 8C13.047 8 8 13.047 8 19.2782C8 24.2689 11.2284 28.4841 15.7115 29.9785C16.2754 30.0771 16.4869 29.7388 16.4869 29.4427C16.4869 29.1749 16.4728 28.2867 16.4728 27.3422C13.6391 27.8638 12.906 26.6514 12.6805 26.017C12.5536 25.6927 12.0038 24.6918 11.5244 24.4239C11.1297 24.2125 10.5658 23.6908 11.5103 23.6767C12.3985 23.6626 13.0329 24.4944 13.2444 24.8328C14.2594 26.5386 15.8807 26.0593 16.5292 25.7632C16.6278 25.0301 16.9239 24.5367 17.2481 24.2548C14.7387 23.9728 12.1166 23 12.1166 18.6861C12.1166 17.4596 12.5536 16.4446 13.2726 15.6551C13.1598 15.3731 12.7651 14.2171 13.3854 12.6664C13.3854 12.6664 14.3299 12.3703 16.4869 13.8224C17.3891 13.5686 18.3478 13.4417 19.3064 13.4417C20.2651 13.4417 21.2237 13.5686 22.126 13.8224C24.2829 12.3562 25.2275 12.6664 25.2275 12.6664C25.8478 14.2171 25.4531 15.3731 25.3403 15.6551C26.0593 16.4446 26.4963 17.4455 26.4963 18.6861C26.4963 23.0141 23.86 23.9728 21.3506 24.2548C21.7594 24.6072 22.1119 25.2839 22.1119 26.3412C22.1119 27.8497 22.0978 29.0621 22.0978 29.4427C22.0978 29.7388 22.3093 30.0912 22.8732 29.9785C25.1121 29.2226 27.0576 27.7837 28.4359 25.8642C29.8142 23.9447 30.5559 21.6413 30.5565 19.2782C30.5565 13.047 25.5095 8 19.2782 8Z" fill="currentcolor"/>
</svg>
