<svg width="38" height="38" viewBox="0 0 38 38" fill="none" xmlns="http://www.w3.org/2000/svg">
<rect width="38" height="38" rx="19" fill="#D9D9D9"/>
<path d="M29.2326 28.1528H28.2093V16.6207C28.2093 15.9863 27.9228 15.3928 27.4214 15.004L26.1628 14.0216L26.1423 11.5147C26.1423 10.9519 25.6819 10.5016 25.1191 10.5016H21.6298L20.2586 9.43744C19.5219 8.85419 18.4781 8.85419 17.7414 9.43744L10.5786 15.004C10.0772 15.3928 9.7907 15.9863 9.7907 16.6105L9.73953 28.1528H8.76744C8.34791 28.1528 8 28.5007 8 28.9202C8 29.3398 8.34791 29.6877 8.76744 29.6877H29.2326C29.6521 29.6877 30 29.3398 30 28.9202C30 28.5007 29.6521 28.1528 29.2326 28.1528ZM13.3721 19.4551V17.9202C13.3721 17.3574 13.8326 16.897 14.3953 16.897H16.4419C17.0047 16.897 17.4651 17.3574 17.4651 17.9202V19.4551C17.4651 20.0179 17.0047 20.4784 16.4419 20.4784H14.3953C13.8326 20.4784 13.3721 20.0179 13.3721 19.4551ZM21.5581 28.1528H16.4419V25.3388C16.4419 24.4895 17.1274 23.804 17.9767 23.804H20.0233C20.8726 23.804 21.5581 24.4895 21.5581 25.3388V28.1528ZM24.6279 19.4551C24.6279 20.0179 24.1674 20.4784 23.6047 20.4784H21.5581C20.9953 20.4784 20.5349 20.0179 20.5349 19.4551V17.9202C20.5349 17.3574 20.9953 16.897 21.5581 16.897H23.6047C24.1674 16.897 24.6279 17.3574 24.6279 17.9202V19.4551Z" fill="#BD9566"/>
</svg>
