<svg width="38" height="38" viewBox="0 0 38 38" fill="currentcolor" xmlns="http://www.w3.org/2000/svg">
<rect width="38" height="38" rx="19" fill="#D9D9D9"/>
<path d="M29 10.4706V27.5294C29 27.9194 28.8451 28.2935 28.5693 28.5693C28.2935 28.8451 27.9194 29 27.5294 29H10.4706C10.0806 29 9.70651 28.8451 9.43073 28.5693C9.15494 28.2935 9 27.9194 9 27.5294V10.4706C9 10.0806 9.15494 9.70651 9.43073 9.43073C9.70651 9.15494 10.0806 9 10.4706 9H27.5294C27.9194 9 28.2935 9.15494 28.5693 9.43073C28.8451 9.70651 29 10.0806 29 10.4706ZM14.8824 16.6471H11.9412V26.0588H14.8824V16.6471ZM15.1471 13.4118C15.1486 13.1893 15.1063 12.9687 15.0226 12.7626C14.9389 12.5564 14.8154 12.3688 14.6592 12.2104C14.503 12.052 14.3171 11.9259 14.1121 11.8393C13.9072 11.7528 13.6872 11.7074 13.4647 11.7059H13.4118C12.9593 11.7059 12.5254 11.8856 12.2055 12.2055C11.8856 12.5254 11.7059 12.9593 11.7059 13.4118C11.7059 13.8642 11.8856 14.2981 12.2055 14.618C12.5254 14.9379 12.9593 15.1176 13.4118 15.1176C13.6343 15.1231 13.8556 15.0847 14.0633 15.0046C14.2709 14.9245 14.4607 14.8042 14.6219 14.6507C14.783 14.4972 14.9124 14.3135 15.0025 14.11C15.0926 13.9065 15.1417 13.6872 15.1471 13.4647V13.4118ZM26.0588 20.3412C26.0588 17.5118 24.2588 16.4118 22.4706 16.4118C21.8851 16.3824 21.3021 16.5072 20.7799 16.7734C20.2576 17.0397 19.8143 17.4383 19.4941 17.9294H19.4118V16.6471H16.6471V26.0588H19.5882V21.0529C19.5457 20.5403 19.7072 20.0315 20.0376 19.6372C20.3681 19.2429 20.8407 18.9949 21.3529 18.9471H21.4647C22.4 18.9471 23.0941 19.5353 23.0941 21.0176V26.0588H26.0353L26.0588 20.3412Z" fill="currentcolor"/>
</svg>
