<svg width="38" height="38" viewBox="0 0 38 38" fill="currentcolor" xmlns="http://www.w3.org/2000/svg">
<rect width="38" height="38" rx="19" fill="#D9D9D9"/>
<path d="M9.00589 11.5417C8.905 10.1124 10.1153 9 11.5452 9H14.6061C15.3401 9 16.0021 9.44226 16.2844 10.1212L17.5643 13.1995C17.8761 13.9493 17.6548 14.8154 17.0218 15.3229L16.2239 15.9625C15.8679 16.248 15.7468 16.7402 15.9579 17.1448C17.0429 19.2241 18.6464 20.9888 20.5964 22.2667C21.008 22.5364 21.5517 22.4291 21.8588 22.0445L22.6902 21.003C23.1966 20.3687 24.0609 20.147 24.8092 20.4594L27.8811 21.742C28.5587 22.0249 29 22.6883 29 23.4238V26.5C29 27.9329 27.8489 29.0955 26.4226 28.9941C17.3021 28.3452 9.65247 20.7017 9.00589 11.5417Z" fill="currentcolor"/>
</svg>
